<mxfile host="app.diagrams.net" modified="2024-06-04T05:16:27.984Z" agent="Mozilla/5.0 (Windows NT 10.0; Win64; x64) AppleWebKit/537.36 (KHTML, like Gecko) Chrome/124.0.0.0 Safari/537.36" version="24.4.13" etag="EqWmHRhZ_maIqH0H7ouB" type="github">
  <diagram name="第 1 页" id="1xXkLsxfBQLVa1ydYoBd">
    <mxGraphModel>
      <root>
        <mxCell id="0" />
        <mxCell id="1" parent="0" />
      </root>
    </mxGraphModel>
  </diagram>
</mxfile>
